<svg xmlns="http://www.w3.org/2000/svg" viewBox="0 0 200 200" width="200" height="200"><path d="M40 98h120c0 34-27 56-60 56s-60-22-60-56z" fill="#E8E2D0" stroke="#5A4A33" stroke-width="4" stroke-linejoin="round"/><path d="M34 98h132" stroke="#5A4A33" stroke-width="5" stroke-linecap="round"/><g fill="none" stroke="#E3B24A" stroke-width="6" stroke-linecap="round">  <path d="M60 96c8-16 20-24 20-38M84 96c6-18 0-28 8-40M108 96c-4-18 6-26 2-40M132 96c-8-14 2-26-4-38"/></g><path d="M56 96h88" stroke="#8A5A1E" stroke-width="4" opacity=".4"/><path d="M112 122c-8-6-4-16 0-20 5 4 8 14 0 20z" fill="#5E8F35" stroke="#33531C" stroke-width="3.5"/></svg>